<svg width="18" height="18" viewBox="0 0 18 18" fill="none" xmlns="http://www.w3.org/2000/svg">
<path fill-rule="evenodd" clip-rule="evenodd" d="M2.14355 7.7735C2.14355 4.58489 4.72844 2 7.91706 2C11.1057 2 13.6906 4.58489 13.6906 7.7735C13.6906 10.9621 11.1057 13.547 7.91706 13.547C4.72844 13.547 2.14355 10.9621 2.14355 7.7735ZM7.91706 0.5C3.90002 0.5 0.643555 3.75646 0.643555 7.7735C0.643555 11.7905 3.90002 15.047 7.91706 15.047C9.58139 15.047 11.1152 14.488 12.3409 13.5475L16.0848 17.2914L17.1454 16.2308L13.4314 12.5167C14.5278 11.2432 15.1906 9.58577 15.1906 7.7735C15.1906 3.75646 11.9341 0.5 7.91706 0.5Z" fill="#fff"/>
</svg>
