<svg width="26" height="26" viewBox="0 0 26 26" fill="none" xmlns="http://www.w3.org/2000/svg">
<g clip-path="url(#clip0_215_174)">
<path fill-rule="evenodd" clip-rule="evenodd" d="M3.37366 2L4.56049 3.22958L22.0135 21.3113L23.2004 22.5408L20.8267 25L19.6399 23.7704L2.18683 5.68873L1 4.45916L3.37366 2ZM17.6535 13.5C17.6535 12.2384 17.3654 11.0405 16.7734 9.83897L16.4139 9.10646L14.9998 9.85284L15.3603 10.5848C15.8358 11.5511 16.0668 12.5045 16.0668 13.5C16.0665 13.7014 16.0561 13.9027 16.0356 14.1031L17.3902 15.5065C17.5634 14.8527 17.652 14.178 17.6535 13.5ZM20.8267 13.5C20.8267 10.8704 20.1782 9.1907 19.132 7.3327L18.7324 6.62279L17.3619 7.45085L17.7615 8.16076C18.6982 9.82407 19.2401 11.2311 19.2401 13.5C19.2401 14.832 19.0472 15.8737 18.6947 16.8559L19.9095 18.1149C20.4891 16.7711 20.8267 15.3708 20.8267 13.5ZM21.4956 4.83877C22.9989 7.27877 24 9.68538 24 13.5C24 16.2225 23.5121 18.4 22.3578 20.6531L21.1827 19.4356C21.9473 17.8149 22.4134 16.0047 22.4134 13.5C22.4134 10.084 21.5119 7.92036 20.1569 5.72333L19.73 5.03037L21.0687 4.14581L21.4956 4.83877ZM9.24423 7.06764L12.8935 4.04821V10.8478L9.24423 7.06764ZM1.78702 17.6043V9.39566H4.78528L12.8935 17.7959V22.9518L6.43042 17.6043H1.78702Z" fill="white"/>
</g>
<defs>
<clipPath id="clip0_215_174">
<rect width="23" height="23" fill="white" transform="translate(1 2)"/>
</clipPath>
</defs>
</svg>
