<svg width="25" height="30" viewBox="0 0 25 30" fill="none" xmlns="http://www.w3.org/2000/svg">
<circle cx="12.5" cy="14.5" r="12.5" fill="#888888"/>
<path d="M14 7.8L13.68 17.46H11.32L10.98 7.8H14ZM12.56 22.14C12.0533 22.14 11.6333 21.9867 11.3 21.68C10.98 21.36 10.82 20.9667 10.82 20.5C10.82 20.0333 10.98 19.6467 11.3 19.34C11.6333 19.02 12.0533 18.86 12.56 18.86C13.0533 18.86 13.46 19.02 13.78 19.34C14.1 19.6467 14.26 20.0333 14.26 20.5C14.26 20.9667 14.1 21.36 13.78 21.68C13.46 21.9867 13.0533 22.14 12.56 22.14Z" fill="white"/>
</svg>
