<svg width="18" height="18" viewBox="0 0 18 18" fill="none" xmlns="http://www.w3.org/2000/svg">
<g clip-path="url(#clip0_2149_6175)">
<path d="M16.4375 2.09172L12.1838 2.09174V1.03296C12.1838 0.739443 11.946 0.501709 11.6525 0.501709C11.359 0.501709 11.1213 0.739443 11.1213 1.03296V2.09147H6.87128V1.03296C6.87128 0.739443 6.63355 0.501709 6.34003 0.501709C6.04652 0.501709 5.80878 0.739443 5.80878 1.03296V2.09147H1.5625C0.975734 2.09147 0.5 2.56721 0.5 3.15397V16.4352C0.5 17.022 0.975734 17.4977 1.5625 17.4977H16.4375C17.0243 17.4977 17.5 17.022 17.5 16.4352V3.15397C17.5 2.56746 17.0243 2.09172 16.4375 2.09172ZM16.4375 16.4352H1.5625V3.15397H5.80878V3.68921C5.80878 3.98271 6.04652 4.22046 6.34003 4.22046C6.63355 4.22046 6.87128 3.98271 6.87128 3.68921V3.15424H11.1213V3.68947C11.1213 3.98299 11.359 4.22072 11.6525 4.22072C11.946 4.22072 12.1838 3.98299 12.1838 3.68947V3.15424H16.4375V16.4352ZM12.7188 8.99797H13.7812C14.0745 8.99797 14.3125 8.75997 14.3125 8.46672V7.40422C14.3125 7.11097 14.0745 6.87297 13.7812 6.87297H12.7188C12.4255 6.87297 12.1875 7.11097 12.1875 7.40422V8.46672C12.1875 8.75997 12.4255 8.99797 12.7188 8.99797ZM12.7188 13.2477H13.7812C14.0745 13.2477 14.3125 13.01 14.3125 12.7165V11.654C14.3125 11.3607 14.0745 11.1227 13.7812 11.1227H12.7188C12.4255 11.1227 12.1875 11.3607 12.1875 11.654V12.7165C12.1875 13.0102 12.4255 13.2477 12.7188 13.2477ZM9.53125 11.1227H8.46875C8.1755 11.1227 7.9375 11.3607 7.9375 11.654V12.7165C7.9375 13.01 8.1755 13.2477 8.46875 13.2477H9.53125C9.8245 13.2477 10.0625 13.01 10.0625 12.7165V11.654C10.0625 11.361 9.8245 11.1227 9.53125 11.1227ZM9.53125 6.87297H8.46875C8.1755 6.87297 7.9375 7.11097 7.9375 7.40422V8.46672C7.9375 8.75997 8.1755 8.99797 8.46875 8.99797H9.53125C9.8245 8.99797 10.0625 8.75997 10.0625 8.46672V7.40422C10.0625 7.11071 9.8245 6.87297 9.53125 6.87297ZM5.28125 6.87297H4.21875C3.9255 6.87297 3.6875 7.11097 3.6875 7.40422V8.46672C3.6875 8.75997 3.9255 8.99797 4.21875 8.99797H5.28125C5.5745 8.99797 5.8125 8.75997 5.8125 8.46672V7.40422C5.8125 7.11071 5.5745 6.87297 5.28125 6.87297ZM5.28125 11.1227H4.21875C3.9255 11.1227 3.6875 11.3607 3.6875 11.654V12.7165C3.6875 13.01 3.9255 13.2477 4.21875 13.2477H5.28125C5.5745 13.2477 5.8125 13.01 5.8125 12.7165V11.654C5.8125 11.361 5.5745 11.1227 5.28125 11.1227Z" fill="white"/>
<path d="M16.4375 2.09172L12.1838 2.09174V1.03296C12.1838 0.739443 11.946 0.501709 11.6525 0.501709C11.359 0.501709 11.1213 0.739443 11.1213 1.03296V2.09147H6.87128V1.03296C6.87128 0.739443 6.63355 0.501709 6.34003 0.501709C6.04652 0.501709 5.80878 0.739443 5.80878 1.03296V2.09147H1.5625C0.975734 2.09147 0.5 2.56721 0.5 3.15397V16.4352C0.5 17.022 0.975734 17.4977 1.5625 17.4977H16.4375C17.0243 17.4977 17.5 17.022 17.5 16.4352V3.15397C17.5 2.56746 17.0243 2.09172 16.4375 2.09172ZM16.4375 16.4352H1.5625V3.15397H5.80878V3.68921C5.80878 3.98271 6.04652 4.22046 6.34003 4.22046C6.63355 4.22046 6.87128 3.98271 6.87128 3.68921V3.15424H11.1213V3.68947C11.1213 3.98299 11.359 4.22072 11.6525 4.22072C11.946 4.22072 12.1838 3.98299 12.1838 3.68947V3.15424H16.4375V16.4352ZM12.7188 8.99797H13.7812C14.0745 8.99797 14.3125 8.75997 14.3125 8.46672V7.40422C14.3125 7.11097 14.0745 6.87297 13.7812 6.87297H12.7188C12.4255 6.87297 12.1875 7.11097 12.1875 7.40422V8.46672C12.1875 8.75997 12.4255 8.99797 12.7188 8.99797ZM12.7188 13.2477H13.7812C14.0745 13.2477 14.3125 13.01 14.3125 12.7165V11.654C14.3125 11.3607 14.0745 11.1227 13.7812 11.1227H12.7188C12.4255 11.1227 12.1875 11.3607 12.1875 11.654V12.7165C12.1875 13.0102 12.4255 13.2477 12.7188 13.2477ZM9.53125 11.1227H8.46875C8.1755 11.1227 7.9375 11.3607 7.9375 11.654V12.7165C7.9375 13.01 8.1755 13.2477 8.46875 13.2477H9.53125C9.8245 13.2477 10.0625 13.01 10.0625 12.7165V11.654C10.0625 11.361 9.8245 11.1227 9.53125 11.1227ZM9.53125 6.87297H8.46875C8.1755 6.87297 7.9375 7.11097 7.9375 7.40422V8.46672C7.9375 8.75997 8.1755 8.99797 8.46875 8.99797H9.53125C9.8245 8.99797 10.0625 8.75997 10.0625 8.46672V7.40422C10.0625 7.11071 9.8245 6.87297 9.53125 6.87297ZM5.28125 6.87297H4.21875C3.9255 6.87297 3.6875 7.11097 3.6875 7.40422V8.46672C3.6875 8.75997 3.9255 8.99797 4.21875 8.99797H5.28125C5.5745 8.99797 5.8125 8.75997 5.8125 8.46672V7.40422C5.8125 7.11071 5.5745 6.87297 5.28125 6.87297ZM5.28125 11.1227H4.21875C3.9255 11.1227 3.6875 11.3607 3.6875 11.654V12.7165C3.6875 13.01 3.9255 13.2477 4.21875 13.2477H5.28125C5.5745 13.2477 5.8125 13.01 5.8125 12.7165V11.654C5.8125 11.361 5.5745 11.1227 5.28125 11.1227Z" fill="black" fill-opacity="0.2"/>
</g>
<defs>
<clipPath id="clip0_2149_6175">
<rect width="17" height="17" fill="white" transform="translate(0.5 0.5)"/>
</clipPath>
</defs>
</svg>
