<svg width="22" height="22" viewBox="0 0 22 22" fill="none" xmlns="http://www.w3.org/2000/svg">
<path d="M17.6743 16.7015C17.7382 16.7654 17.7888 16.8412 17.8234 16.9246C17.858 17.0081 17.8758 17.0975 17.8758 17.1879C17.8758 17.2782 17.858 17.3677 17.8234 17.4511C17.7888 17.5346 17.7382 17.6104 17.6743 17.6743C17.6104 17.7382 17.5346 17.7888 17.4511 17.8234C17.3677 17.858 17.2782 17.8758 17.1879 17.8758C17.0975 17.8758 17.0081 17.858 16.9246 17.8234C16.8412 17.7888 16.7654 17.7382 16.7015 17.6743L11.0004 11.9723L5.29929 17.6743C5.17029 17.8033 4.99532 17.8758 4.81288 17.8758C4.63044 17.8758 4.45548 17.8033 4.32648 17.6743C4.19747 17.5453 4.125 17.3703 4.125 17.1879C4.125 17.0054 4.19747 16.8305 4.32648 16.7015L10.0284 11.0004L4.32648 5.29929C4.19747 5.17029 4.125 4.99532 4.125 4.81288C4.125 4.63044 4.19747 4.45548 4.32648 4.32648C4.45548 4.19747 4.63044 4.125 4.81288 4.125C4.99532 4.125 5.17029 4.19747 5.29929 4.32648L11.0004 10.0284L16.7015 4.32648C16.8305 4.19747 17.0054 4.125 17.1879 4.125C17.3703 4.125 17.5453 4.19747 17.6743 4.32648C17.8033 4.45548 17.8758 4.63044 17.8758 4.81288C17.8758 4.99532 17.8033 5.17029 17.6743 5.29929L11.9723 11.0004L17.6743 16.7015Z" fill="white"/>
</svg>
