<svg width="20" height="21" viewBox="0 0 20 21" fill="none" xmlns="http://www.w3.org/2000/svg">
<path d="M6.15924 1.9951C6.74591 2.06072 7.21258 2.53322 7.29258 3.11072L8.31924 7.4026C8.46591 8.00635 8.15924 8.63635 7.58591 8.89885L6.79924 9.25322C7.38591 10.7626 8.67924 11.7995 8.67924 11.7995C8.67924 11.7995 9.74591 13.0726 11.2659 13.6501L11.6259 12.8757C11.7554 12.601 11.9776 12.3789 12.2548 12.2472C12.5319 12.1156 12.8468 12.0826 13.1459 12.1538L17.5059 13.1645C18.0926 13.2432 18.5726 13.7026 18.6392 14.2801C18.7726 15.3563 18.7326 17.0363 17.5059 17.9288C17.5059 17.9288 11.9726 21.7613 5.25258 15.1463C-1.46742 8.53135 2.42591 3.08447 2.42591 3.08447C3.34591 1.87697 5.05258 1.85072 6.13258 1.96885L6.15924 1.9951Z" fill="#F47F3F"/>
</svg>
