<svg width="60" height="60" viewBox="0 0 60 60" fill="none" xmlns="http://www.w3.org/2000/svg">
<g clip-path="url(#clip0_4748_9925)">
<path d="M59.98 30.0102C59.98 30.5984 60.0066 31.1876 59.9725 31.7726C59.933 32.4555 59.836 33.1343 59.7688 33.8162C59.6621 34.9094 59.4391 35.9813 59.1831 37.0468C58.1986 41.1427 56.4182 44.8624 53.8571 48.2059C51.2703 51.5825 48.1065 54.29 44.3719 56.3368C41.5452 57.8861 38.5413 58.9314 35.3754 59.511C34.2009 59.7262 33.0158 59.8893 31.8179 59.9191C31.2301 59.934 30.6445 59.9905 30.0568 59.999C28.9389 60.015 27.8263 59.9063 26.7137 59.803C25.3057 59.6719 23.9211 59.413 22.5536 59.0646C18.4094 58.0065 14.661 56.1451 11.3148 53.4866C8.42933 51.1936 6.03884 48.4659 4.15611 45.2971C2.37791 42.3051 1.16507 39.099 0.503711 35.6809C0.298904 34.6228 0.133565 33.5573 0.0652955 32.4854C-0.00830709 31.3336 -0.0115072 30.1743 0.00876018 29.0193C0.0770293 25.1504 0.95386 21.4595 2.51445 17.9252C4.34918 13.7697 7.00741 10.2237 10.4465 7.25834C13.67 4.47949 17.3278 2.48591 21.4005 1.25312C23.0154 0.764048 24.6635 0.443329 26.3393 0.223833C28.0972 -0.0052515 29.8605 -0.0425444 31.6216 0.0395C33.3827 0.121544 35.1268 0.380464 36.8485 0.784292C40.6363 1.67293 44.1159 3.2403 47.2926 5.47893C47.5454 5.65688 47.795 5.86465 47.9838 6.10759C48.9641 7.37128 48.546 9.54386 46.5864 10.1054C45.8696 10.311 45.1506 10.2045 44.5053 9.76336C43.9399 9.37551 43.3671 8.99512 42.7804 8.64031C40.1691 7.06015 37.3488 6.02341 34.3492 5.4832C32.491 5.14863 30.6136 5.01544 28.7276 5.12625C25.8891 5.29247 23.1434 5.89129 20.513 6.9845C17.3192 8.31213 14.5127 10.2173 12.1127 12.7031C8.83574 16.0968 6.67673 20.1031 5.64629 24.705C5.35082 26.0231 5.15134 27.3592 5.12148 28.7145C5.11081 29.2036 5.04681 29.6927 5.05747 30.1807C5.13321 33.7469 5.8479 37.1704 7.36476 40.4139C9.58137 45.1532 12.9554 48.841 17.4547 51.5037C19.8377 52.9134 22.4042 53.8585 25.1147 54.4029C26.2081 54.6224 27.3121 54.7929 28.4332 54.8164C29.0594 54.8292 29.6866 54.9069 30.3117 54.892C33.5364 54.8121 36.6522 54.2026 39.6283 52.9315C44.0701 51.0349 47.6787 48.1068 50.4436 44.1559C52.4352 41.311 53.7632 38.1773 54.4384 34.7656C54.8555 32.658 54.9963 30.5323 54.8608 28.396C54.719 26.1605 54.2912 23.973 53.5317 21.859C53.3685 21.4041 53.3312 20.947 53.3525 20.4728C53.4037 19.3647 54.5643 18.2448 55.6331 18.231C55.966 18.2267 56.2977 18.2097 56.623 18.3173C57.4188 18.5794 57.9756 19.0813 58.2636 19.8761C58.6562 20.964 58.9826 22.0721 59.2482 23.1963C59.5181 24.3396 59.7122 25.4988 59.8434 26.6645C59.9725 27.7769 60.0344 28.8914 59.98 30.0102Z" fill="#F47F3F"/>
<path d="M23.4285 37.5263C23.7144 37.391 23.8733 37.1864 24.0515 37.0085C27.9353 33.1311 31.8181 29.2526 35.7009 25.3742C37.5453 23.5319 39.3896 21.6886 41.235 19.8484C41.4153 19.6684 41.6009 19.4947 41.794 19.3285C42.2601 18.9268 42.8287 18.7637 43.4217 18.7296C44.7818 18.6519 46.0661 19.8591 46.1269 21.2229C46.1642 22.053 45.9178 22.7647 45.3141 23.3444C45.1871 23.4669 45.0645 23.5937 44.9397 23.7184C38.5053 30.1455 32.0699 36.5738 25.6355 43.0009C25.4552 43.181 25.2686 43.3557 25.0936 43.5401C24.3085 44.369 22.7095 44.3797 21.8647 43.6189C21.7335 43.5006 21.6076 43.377 21.4828 43.2524C19.3057 41.0777 17.1285 38.903 14.9514 36.7283C14.8266 36.6036 14.7029 36.4779 14.5845 36.3468C13.7151 35.3836 13.7919 33.8418 14.3135 33.0565C15.1637 31.7758 16.9717 31.4859 18.143 32.3884C18.3126 32.5195 18.4662 32.6729 18.6187 32.8253C19.9372 34.1401 21.2535 35.4571 22.573 36.7709C22.8354 37.0319 23.0904 37.3036 23.4285 37.5263Z" fill="#F47F3F"/>
</g>
<defs>
<clipPath id="clip0_4748_9925">
<rect width="60" height="60" fill="white"/>
</clipPath>
</defs>
</svg>
