<svg width="25" height="27" viewBox="0 0 25 27" fill="none" xmlns="http://www.w3.org/2000/svg">
<g clip-path="url(#clip0_2320_9008)">
<path d="M23.4375 4.31108L17.182 4.3111V2.75201C17.182 2.3198 16.8324 1.96973 16.4008 1.96973C15.9691 1.96973 15.6195 2.3198 15.6195 2.75201V4.31071H9.36953V2.75201C9.36953 2.3198 9.01992 1.96973 8.58828 1.96973C8.15664 1.96973 7.80703 2.3198 7.80703 2.75201V4.31071H1.5625C0.699609 4.31071 0 5.01125 0 5.87528V25.4324C0 26.2964 0.699609 26.997 1.5625 26.997H23.4375C24.3004 26.997 25 26.2964 25 25.4324V5.87528C25 5.01162 24.3004 4.31108 23.4375 4.31108ZM23.4375 25.4324H1.5625V5.87528H7.80703V6.66343C7.80703 7.09562 8.15664 7.44572 8.58828 7.44572C9.01992 7.44572 9.36953 7.09562 9.36953 6.66343V5.87567H15.6195V6.66383C15.6195 7.09604 15.9691 7.44611 16.4008 7.44611C16.8324 7.44611 17.182 7.09604 17.182 6.66383V5.87567H23.4375V25.4324ZM17.9688 14.4808H19.5312C19.9625 14.4808 20.3125 14.1303 20.3125 13.6985V12.1339C20.3125 11.7021 19.9625 11.3516 19.5312 11.3516H17.9688C17.5375 11.3516 17.1875 11.7021 17.1875 12.1339V13.6985C17.1875 14.1303 17.5375 14.4808 17.9688 14.4808ZM17.9688 20.7387H19.5312C19.9625 20.7387 20.3125 20.3886 20.3125 19.9564V18.3918C20.3125 17.96 19.9625 17.6095 19.5312 17.6095H17.9688C17.5375 17.6095 17.1875 17.96 17.1875 18.3918V19.9564C17.1875 20.389 17.5375 20.7387 17.9688 20.7387ZM13.2812 17.6095H11.7188C11.2875 17.6095 10.9375 17.96 10.9375 18.3918V19.9564C10.9375 20.3886 11.2875 20.7387 11.7188 20.7387H13.2812C13.7125 20.7387 14.0625 20.3886 14.0625 19.9564V18.3918C14.0625 17.9604 13.7125 17.6095 13.2812 17.6095ZM13.2812 11.3516H11.7188C11.2875 11.3516 10.9375 11.7021 10.9375 12.1339V13.6985C10.9375 14.1303 11.2875 14.4808 11.7188 14.4808H13.2812C13.7125 14.4808 14.0625 14.1303 14.0625 13.6985V12.1339C14.0625 11.7017 13.7125 11.3516 13.2812 11.3516ZM7.03125 11.3516H5.46875C5.0375 11.3516 4.6875 11.7021 4.6875 12.1339V13.6985C4.6875 14.1303 5.0375 14.4808 5.46875 14.4808H7.03125C7.4625 14.4808 7.8125 14.1303 7.8125 13.6985V12.1339C7.8125 11.7017 7.4625 11.3516 7.03125 11.3516ZM7.03125 17.6095H5.46875C5.0375 17.6095 4.6875 17.96 4.6875 18.3918V19.9564C4.6875 20.3886 5.0375 20.7387 5.46875 20.7387H7.03125C7.4625 20.7387 7.8125 20.3886 7.8125 19.9564V18.3918C7.8125 17.9604 7.4625 17.6095 7.03125 17.6095Z" fill="black"/>
</g>
<defs>
<clipPath id="clip0_2320_9008">
<rect width="25" height="25.0331" fill="white" transform="translate(0 1.96729)"/>
</clipPath>
</defs>
</svg>
