<svg width="8" height="7" viewBox="0 0 8 7" fill="none" xmlns="http://www.w3.org/2000/svg">
<path d="M7.03377 6.16775C7.0628 6.19679 7.08583 6.23126 7.10155 6.26919C7.11726 6.30713 7.12535 6.34778 7.12535 6.38885C7.12535 6.42991 7.11726 6.47057 7.10155 6.5085C7.08583 6.54644 7.0628 6.5809 7.03377 6.60994C7.00473 6.63897 6.97026 6.662 6.93233 6.67772C6.89439 6.69343 6.85373 6.70152 6.81267 6.70152C6.77161 6.70152 6.73095 6.69343 6.69302 6.67772C6.65508 6.662 6.62061 6.63897 6.59158 6.60994L4.00017 4.01814L1.40877 6.60994C1.35013 6.66858 1.2706 6.70152 1.18767 6.70152C1.10475 6.70152 1.02522 6.66858 0.96658 6.60994C0.907942 6.5513 0.875 6.47177 0.875 6.38885C0.875 6.30592 0.907942 6.22639 0.96658 6.16775L3.55838 3.57635L0.96658 0.984939C0.907942 0.926302 0.875 0.846772 0.875 0.763846C0.875 0.680919 0.907942 0.60139 0.96658 0.542752C1.02522 0.484114 1.10475 0.451172 1.18767 0.451172C1.2706 0.451172 1.35013 0.484114 1.40877 0.542752L4.00017 3.13455L6.59158 0.542752C6.65022 0.484114 6.72975 0.451172 6.81267 0.451172C6.8956 0.451172 6.97513 0.484114 7.03377 0.542752C7.0924 0.60139 7.12535 0.680919 7.12535 0.763846C7.12535 0.846772 7.0924 0.926302 7.03377 0.984939L4.44197 3.57635L7.03377 6.16775Z" fill="white"/>
</svg>
