<svg width="156" height="52" viewBox="0 0 156 52" fill="none" xmlns="http://www.w3.org/2000/svg">
<g clip-path="url(#clip0_207_5533)">
<path d="M124.167 12.7423C124.167 13.2108 124.214 13.6324 124.4 14.1009C125.191 16.0216 127.146 17.2396 129.659 16.209C130.264 15.9748 146.878 9.22883 146.878 9.22883C146.878 9.22883 140.363 25.9063 140.083 26.5153C139.153 28.9045 140.27 31.0595 142.224 31.809C142.643 31.9964 143.109 32.0432 143.527 32.0432C145.11 32.0432 146.506 31.1063 147.204 29.1856C147.297 28.9045 155.488 6.32432 155.674 5.76216C155.767 5.43423 155.953 4.68468 155.953 4.16937C155.953 3.04505 155.535 2.01441 154.743 1.21802C153.999 0.421622 152.975 0 151.858 0C151.346 0 150.881 0.0936937 150.229 0.327928C149.857 0.468468 128.774 8.33874 126.959 9.04144C125.191 9.6973 124.167 11.1027 124.167 12.7423Z" fill="white"/>
<path d="M84.7018 25.4851V25.0166H71.9035V28.2959H79.3498C77.3951 34.4328 70.5073 38.0869 70.5073 38.0869L72.3689 40.7103C72.3224 40.6634 84.7018 35.5103 84.7018 25.4851Z" fill="white"/>
<path d="M80.6525 47.3155V40.9443H76.1382V48.1588C76.1382 50.4074 77.9067 52.047 80.3733 52.047H94.4282V48.7678H82.2814C81.1179 48.7209 80.6525 48.2993 80.6525 47.3155Z" fill="white"/>
<path d="M84.1899 31.0596V34.3389H89.5885V42.256H94.1028V24.6416H89.5885V31.0596H84.1899Z" fill="white"/>
<path d="M123.236 37.8523H127.751V24.501H123.236V28.6703H118.489V31.9028H123.236V37.8523Z" fill="white"/>
<path d="M21.5477 40.6631H4.32812V48.1117C4.32812 50.3604 6.09662 52 8.56321 52H22.6181V41.6937C22.5716 41.1316 22.1062 40.6631 21.5477 40.6631ZM18.0572 48.7207H10.4248C9.30784 48.7207 8.84244 48.2991 8.84244 47.3153V43.9892H18.0572V48.7207Z" fill="white"/>
<path d="M22.8974 25.0165V24.876H4.04893V28.1553H18.1504C18.1504 28.3895 18.1504 28.6237 18.1504 28.9048C18.1504 31.9499 18.0107 33.9643 17.9177 34.8075H0V38.0868H27.5979V34.8075H21.92C22.1993 33.7769 22.8974 30.5913 22.8974 25.0165Z" fill="white"/>
<path d="M51.0536 42.3494C54.8233 41.5062 57.6157 38.6954 57.6157 35.3224C57.6157 33.4954 56.8245 31.8557 55.4749 30.5909H60.2684V27.3116H51.0536V24.1729H46.5393V27.2647H37.278V30.544H42.0715C40.7684 31.8089 39.9773 33.4954 39.9773 35.2756C39.9773 38.6485 42.7696 41.4593 46.5393 42.3026V45.6287H34.9976V48.908H62.5954V45.6287H51.0536V42.3494ZM44.6312 35.1819C44.6312 32.9332 46.4928 31.1062 48.7732 31.1062C51.0536 31.1062 52.9152 32.9332 52.9152 35.1819C52.9152 37.4305 51.0536 39.2575 48.7732 39.2575C46.4928 39.2575 44.6312 37.4305 44.6312 35.1819Z" fill="white"/>
<path d="M114.58 37.5715H118.955C118.769 36.494 117.186 27.8742 112.998 24.876H107.925L104.016 37.712H108.576L111.183 28.4832C113.37 31.0129 114.44 36.7282 114.58 37.5715Z" fill="white"/>
<path d="M115.464 48.8614C114.301 48.8614 114.115 48.5803 114.115 47.5965V47.1749H127.797V40.2415C127.797 39.6325 127.378 39.1641 126.773 39.1641H109.693V42.3496H123.469V44.0361H109.786V48.1587C109.786 50.5478 111.508 52.0469 114.022 52.0469H128.076V48.8614H115.464Z" fill="white"/>
</g>
<defs>
<clipPath id="clip0_207_5533">
<rect width="156" height="52" fill="white"/>
</clipPath>
</defs>
</svg>
