<svg width="212" height="28" viewBox="0 0 212 28" fill="none" xmlns="http://www.w3.org/2000/svg">
<g clip-path="url(#clip0_4001_2398)">
<path d="M73.4585 5.40984H85.4785V28H92.2981V5.40984H104.443V0H73.4585V5.40984Z" fill="#242A5C"/>
<path d="M108.803 28H136.797V22.5902H115.622V16.6885H132.656V11.2787H115.622V5.40984H136.797V0H108.803V28Z" fill="#242A5C"/>
<path d="M14.698 0L0 28H7.47356L10.681 21.5738H26.6246L29.832 28H37.3055L22.6387 0H14.698ZM13.3901 16.1639L18.6528 5.63934L23.9154 16.1639H13.3901Z" fill="#242A5C"/>
<path d="M197.333 0H189.392L174.694 28H182.168L185.375 21.5738H201.319L204.526 28H212L197.333 0ZM188.084 16.1639L193.347 5.63934L198.61 16.1639H188.084Z" fill="#242A5C"/>
<path d="M70.3451 9.47541C70.3451 4.22951 66.328 0 61.3457 0H40.0771V28H46.8968V5.40984H59.7264C61.875 5.40984 63.5877 7.2459 63.5877 9.47541C63.5877 11.7377 61.8439 13.541 59.7264 13.541H50.2599L62.9338 27.9672H71.5284L63.0272 18.7541C67.1999 17.9344 70.3451 14.0984 70.3451 9.47541Z" fill="#242A5C"/>
<path d="M172.234 9.47541C172.234 4.2623 168.217 0 163.235 0H141.966V28H148.786V5.40984H161.616C163.764 5.40984 165.477 7.2459 165.477 9.47541C165.477 11.7377 163.733 13.541 161.616 13.541H152.149L164.823 27.9672H173.418L164.916 18.7541C169.089 17.9344 172.234 14.0984 172.234 9.47541Z" fill="#242A5C"/>
</g>
<defs>
<clipPath id="clip0_4001_2398">
<rect width="212" height="28" fill="#242A5C"/>
</clipPath>
</defs>
</svg>
