<svg width="166" height="93" viewBox="0 0 166 93" fill="none" xmlns="http://www.w3.org/2000/svg">
<path d="M57.5178 75.8767H66.9296V92.8192H72.2695V75.8767H81.7788V71.8193H57.5178V75.8767Z" fill="#242A5C"/>
<path d="M85.1957 92.8192H107.116V88.7619H90.5356V84.3357H103.873V80.2783H90.5356V75.8767H107.116V71.8193H85.1957V92.8192Z" fill="#242A5C"/>
<path d="M11.5088 71.8193L0 92.8192H5.85191L8.36336 87.9996H20.8474L23.3589 92.8192H29.2108L17.7264 71.8193H11.5088ZM10.4847 83.9422L14.6054 76.0488L18.7261 83.9422H10.4847Z" fill="#242A5C"/>
<path d="M154.515 71.8193H148.298L136.789 92.8192H142.641L145.152 87.9996H157.636L160.148 92.8192H166L154.515 71.8193ZM147.274 83.9422L151.394 76.0488L155.515 83.9422H147.274Z" fill="#242A5C"/>
<path d="M55.0819 78.9259C55.0819 74.9915 51.9365 71.8193 48.0353 71.8193H31.3817V92.8192H36.7216V75.8767H46.7673C48.4498 75.8767 49.7908 77.2537 49.7908 78.9259C49.7908 80.6226 48.4254 81.975 46.7673 81.975H39.3549L49.2788 92.7947H56.0085L49.3519 85.8848C52.6192 85.2701 55.0819 82.3931 55.0819 78.9259Z" fill="#242A5C"/>
<path d="M134.861 78.9259C134.861 75.016 131.715 71.8193 127.814 71.8193H111.161V92.8192H116.501V75.8767H126.546C128.229 75.8767 129.57 77.2537 129.57 78.9259C129.57 80.6226 128.204 81.975 126.546 81.975H119.134L129.058 92.7947H135.787L129.131 85.8848C132.398 85.2701 134.861 82.3931 134.861 78.9259Z" fill="#242A5C"/>
<path d="M89.5791 0H75.8653L47.2715 29.6834V51.9986H68.8054L82.725 36.0893L96.6447 51.9986H118.179V29.6834L89.5791 0Z" fill="#242A5C"/>
</svg>
