<svg width="14" height="8" viewBox="0 0 14 8" fill="none" xmlns="http://www.w3.org/2000/svg">
<path id="Vector" d="M6.99483 8C6.68804 7.99882 6.39369 7.88105 6.17379 7.6715L0.391813 2.00214C0.273359 1.89988 0.177538 1.77494 0.110255 1.63503C0.0429713 1.49511 0.00565091 1.34318 0.000593436 1.1886C-0.00446404 1.03402 0.0228486 0.880063 0.0808481 0.736216C0.138848 0.592368 0.226305 0.461679 0.337832 0.352201C0.449358 0.242724 0.58259 0.156777 0.729318 0.0996586C0.876045 0.0425398 1.03316 0.0154588 1.19098 0.0200842C1.3488 0.0247097 1.50398 0.0609437 1.64696 0.126553C1.78994 0.192163 1.91768 0.285758 2.02233 0.401572L6.99483 5.26669L11.9604 0.401572C12.0638 0.281704 12.1915 0.184195 12.3354 0.115229C12.4794 0.0462631 12.6363 0.00734505 12.7964 0.000942924C12.9565 -0.0054592 13.1162 0.0207943 13.2654 0.0780386C13.4146 0.135283 13.55 0.222269 13.663 0.333479C13.7761 0.44469 13.8643 0.5777 13.9221 0.724072C13.9799 0.870444 14.006 1.02699 13.9988 1.18377C13.9916 1.34055 13.9512 1.49415 13.8802 1.63484C13.8092 1.77552 13.7091 1.90021 13.5863 2.001L7.8043 7.67037C7.69833 7.77501 7.57222 7.85803 7.43327 7.91461C7.29432 7.97119 7.1453 8.00021 6.99483 8Z" fill="black"/>
</svg>
