<svg width="33" height="31" viewBox="0 0 33 31" fill="none" xmlns="http://www.w3.org/2000/svg">
<g clip-path="url(#clip0_4274_58581)">
<path d="M19.1295 20.2694C19.1295 18.3702 19.1295 16.665 19.1295 14.7154C19.9692 14.7154 20.7527 14.7606 21.5282 14.7075C24.8067 14.4897 26.6893 12.1311 25.9833 9.16154C25.5341 7.27306 24.0793 6.01672 22.1031 5.90517C20.9479 5.83876 19.7847 5.93438 18.6321 5.85736C17.5919 5.78564 17.2549 6.1389 17.2629 7.19603C17.3084 13.6105 17.287 20.025 17.279 26.4395C17.279 27.0105 17.2656 27.5975 17.1426 28.15C16.7655 29.8526 15.6986 30.7264 14.078 30.7344C12.4548 30.7424 11.3317 29.8844 10.9199 28.2403C10.7808 27.6905 10.7327 27.1062 10.7327 26.5378C10.722 19.2839 10.7193 12.0275 10.7273 4.77367C10.73 1.57838 12.0671 0.229078 15.2734 0.234391C18.1213 0.239703 20.972 0.242359 23.8146 0.388444C30.4197 0.725769 33.4068 6.67809 32.7436 11.6636C32.0082 17.167 28.4997 20.2295 22.8867 20.2694C21.6887 20.2747 20.488 20.2694 19.1295 20.2694Z" fill="white"/>
<path d="M5.51694 14.7103C9.08693 14.6997 9.08693 14.6997 9.08425 18.203C9.08425 18.5988 9.19122 19.045 9.04414 19.3797C8.89439 19.7223 8.50129 20.1872 8.19644 20.2004C6.51172 20.2775 4.81899 20.2987 3.13428 20.2111C1.31318 20.1207 0.232825 18.9946 0.254218 17.3929C0.275611 15.7966 1.38538 14.7926 3.25194 14.7129C4.00605 14.6837 4.76283 14.7103 5.51694 14.7103Z" fill="white"/>
</g>
<defs>
<clipPath id="clip0_4274_58581">
<rect width="32.5818" height="30.5" fill="white" transform="translate(0.253906 0.234375)"/>
</clipPath>
</defs>
</svg>
