<svg width="37" height="27" viewBox="0 0 37 27" fill="none" xmlns="http://www.w3.org/2000/svg">
<g clip-path="url(#clip0_4274_58586)">
<path d="M36.0177 4.42905C35.5989 2.802 34.3546 1.52625 32.7752 1.08868C29.9216 0.299805 18.4592 0.299805 18.4592 0.299805C18.4592 0.299805 6.99677 0.299805 4.13716 1.08868C2.55779 1.52009 1.31343 2.802 0.894661 4.42905C0.128906 7.37499 0.128906 13.5134 0.128906 13.5134C0.128906 13.5134 0.128906 19.658 0.894661 22.6039C1.31343 24.2309 2.55779 25.5067 4.13716 25.9443C6.99677 26.7331 18.4592 26.7331 18.4592 26.7331C18.4592 26.7331 29.9216 26.7331 32.7812 25.9443C34.3606 25.5129 35.5989 24.2309 36.0237 22.6039C36.7894 19.658 36.7894 13.5134 36.7894 13.5134C36.7894 13.5134 36.7835 7.37499 36.0177 4.42905Z" fill="white"/>
<path d="M14.793 19.1835L24.317 13.5135L14.793 7.84961V19.1835Z" fill="#1B2258"/>
</g>
<defs>
<clipPath id="clip0_4274_58586">
<rect width="36.6545" height="26.4333" fill="white" transform="translate(0.128906 0.299805)"/>
</clipPath>
</defs>
</svg>
