<svg width="38" height="37" viewBox="0 0 38 37" fill="none" xmlns="http://www.w3.org/2000/svg">
<path d="M18.8214 5.07904C23.2012 5.07904 23.719 5.09637 25.4489 5.17436C27.0487 5.24658 27.9165 5.51521 28.4951 5.73763C29.2617 6.03515 29.8084 6.39044 30.3812 6.96237C30.954 7.5343 31.3098 8.08023 31.6078 8.8457C31.8334 9.4234 32.0996 10.29 32.1719 11.8873C32.25 13.6147 32.2673 14.1317 32.2673 18.505C32.2673 22.8782 32.25 23.3953 32.1719 25.1226C32.0996 26.72 31.8334 27.5865 31.6078 28.1642C31.3098 28.9297 30.954 29.4756 30.3812 30.0476C29.8084 30.6195 29.2617 30.9748 28.4951 31.2723C27.9165 31.4976 27.0487 31.7634 25.4489 31.8356C23.719 31.9136 23.2012 31.9309 18.8214 31.9309C14.4416 31.9309 13.9238 31.9136 12.1939 31.8356C10.5942 31.7634 9.72631 31.4976 9.14774 31.2723C8.38113 30.9748 7.83728 30.6195 7.2616 30.0476C6.68882 29.4756 6.333 28.9297 6.03504 28.1642C5.8094 27.5865 5.54325 26.72 5.47093 25.1226C5.39283 23.3953 5.37547 22.8782 5.37547 18.505C5.37547 14.1317 5.39283 13.6147 5.47093 11.8873C5.54325 10.29 5.81229 9.4234 6.03504 8.8457C6.333 8.08023 6.68882 7.5343 7.2616 6.96237C7.83439 6.39044 8.38113 6.03515 9.14774 5.73763C9.72631 5.51232 10.5942 5.24658 12.1939 5.17436C13.9238 5.09348 14.4445 5.07904 18.8214 5.07904ZM18.8214 2.12695C14.3693 2.12695 13.8081 2.14717 12.0608 2.22516C10.3136 2.30604 9.1217 2.58045 8.08028 2.98774C7.00125 3.40658 6.08711 3.96695 5.17586 4.87684C4.26462 5.78673 3.7034 6.69951 3.28394 7.77694C2.87894 8.8197 2.60123 10.0098 2.52023 11.7516C2.44212 13.4991 2.42188 14.0566 2.42188 18.5021C2.42188 22.9475 2.44212 23.5079 2.52023 25.2526C2.60123 26.9944 2.87605 28.1874 3.28394 29.2272C3.7034 30.3047 4.26462 31.2174 5.17586 32.1273C6.08711 33.0372 7.00125 33.5976 8.08028 34.0164C9.12459 34.4208 10.3164 34.6981 12.0608 34.7761C13.811 34.857 14.3693 34.8743 18.8214 34.8743C23.2735 34.8743 23.8347 34.8541 25.582 34.7761C27.3293 34.6952 28.5211 34.4208 29.5625 34.0164C30.6416 33.5976 31.5557 33.0372 32.467 32.1273C33.3782 31.2174 33.9394 30.3047 34.3589 29.2272C34.7639 28.1845 35.0416 26.9944 35.1197 25.2526C35.2007 23.505 35.218 22.9475 35.218 18.5021C35.218 14.0566 35.1978 13.4962 35.1197 11.7516C35.0387 10.0098 34.7639 8.81681 34.3589 7.77694C33.9394 6.69951 33.3782 5.78673 32.467 4.87684C31.5557 3.96695 30.6416 3.40658 29.5625 2.98774C28.5182 2.58334 27.3264 2.30604 25.582 2.22516C23.8347 2.14717 23.2764 2.12695 18.8214 2.12695Z" fill="white"/>
<path d="M18.8181 9.83203C14.0226 9.83203 10.1367 13.7121 10.1367 18.5005C10.1367 23.2888 14.0256 27.1689 18.8181 27.1689C23.6105 27.1689 27.4994 23.2888 27.4994 18.5005C27.5024 13.7121 23.6135 9.83203 18.8181 9.83203ZM18.8181 24.1285C15.7046 24.1285 13.1816 21.6093 13.1816 18.5005C13.1816 15.3916 15.7046 12.8724 18.8181 12.8724C21.9315 12.8724 24.4545 15.3916 24.4545 18.5005C24.4545 21.6093 21.9315 24.1285 18.8181 24.1285Z" fill="white"/>
<path d="M29.4292 8.86843C29.4292 9.401 28.9965 9.83159 28.4646 9.83159C27.9326 9.83159 27.5 9.39958 27.5 8.86843C27.5 8.33586 27.9326 7.90527 28.4646 7.90527C28.9965 7.90527 29.4292 8.33586 29.4292 8.86843Z" fill="white"/>
</svg>
