<svg width="46" height="58" viewBox="0 0 46 58" fill="none" xmlns="http://www.w3.org/2000/svg">
<path d="M2.80318 56H30.1892C31.739 56 33 54.7825 33 53.2773V3.73008C33 2.22485 31.7465 1 30.1892 1H2.80318C1.25345 1.00738 0 2.22485 0 3.73008V53.2699C0 54.7752 1.25345 56 2.80318 56Z" fill="#133641"/>
<path d="M2.80318 55H30.1892C31.739 55 33 53.7824 33 52.2696V2.73044C33 1.22501 31.7465 0 30.1892 0H2.80318C1.25345 0 0 1.22501 0 2.73044V52.2769C0 53.775 1.25345 55 2.80318 55Z" fill="#242A5C"/>
<path d="M31 5H2V51H31V5Z" fill="#47CEE4"/>
<path d="M11.9715 3H20.0285C20.5617 3 21 2.78 21 2.5C21 2.22667 20.5617 2 20.0285 2H11.9715C11.431 2 11 2.22667 11 2.5C11 2.78 11.431 3 11.9715 3Z" fill="#3289A1"/>
<path d="M22 2.50007C22 2.77276 22.2208 3 22.5 3C22.7727 3 23 2.77276 23 2.50007C23 2.22088 22.7792 2.00014 22.5 2.00014C22.2208 1.99364 22 2.22088 22 2.50007Z" fill="#3289A1"/>
<g clip-path="url(#clip0_2765_7326)">
<mask id="mask0_2765_7326" style="mask-type:luminance" maskUnits="userSpaceOnUse" x="13" y="11" width="33" height="29">
<path d="M15.8645 11C14.2822 11 13 12.2824 13 13.865V32.5267C13 34.1092 14.2822 35.3916 15.8645 35.3916H35.2026L35.4717 39.1817C35.5104 39.7448 36.194 40 36.5931 39.6009L40.8031 35.3916H43.1371C44.7178 35.3916 46 34.1092 46 32.5267V13.865C46 12.2824 44.7178 11 43.1371 11H15.8645Z" fill="white"/>
</mask>
<g mask="url(#mask0_2765_7326)">
<path d="M46 11H13V40H46V11Z" fill="url(#paint0_linear_2765_7326)"/>
</g>
<path d="M39.4681 19H20V19.5569H39.4681V19Z" fill="#1D224A"/>
<path d="M39.4681 21.5569H20V22.1138H39.4681V21.5569Z" fill="#1D224A"/>
<path d="M39.4681 24.1138H20V24.6707H39.4681V24.1138Z" fill="#1D224A"/>
<path d="M39.4681 26.6707H20V27.2276H39.4681V26.6707Z" fill="#1D224A"/>
</g>
<defs>
<linearGradient id="paint0_linear_2765_7326" x1="12.9947" y1="25.4992" x2="45.995" y2="25.4992" gradientUnits="userSpaceOnUse">
<stop stop-color="white"/>
<stop offset="1" stop-color="#E7FCFF"/>
</linearGradient>
<clipPath id="clip0_2765_7326">
<rect width="33" height="29" fill="white" transform="translate(13 11)"/>
</clipPath>
</defs>
</svg>
