<svg width="35" height="46" viewBox="0 0 35 46" fill="none" xmlns="http://www.w3.org/2000/svg">
<g clip-path="url(#clip0_2765_7894)">
<path d="M0 18.0469V43.848C0 46.7194 35 46.7194 35 43.848V18.0469H0ZM19.2707 31.7486V39.0644C19.2707 40.041 18.4772 40.848 17.5088 40.848C16.5228 40.848 15.7293 40.041 15.7293 39.0644V31.7311C14.2299 31.0527 13.1739 29.5381 13.1739 27.7837C13.1739 25.3919 15.1167 23.4562 17.5029 23.4562C19.8891 23.4562 21.8203 25.3861 21.8203 27.7837C21.8203 29.5498 20.7818 31.0703 19.2707 31.7486Z" fill="#242A5C"/>
<path d="M31.9375 16.2047H28.396V14.4678C28.396 8.45029 23.5069 3.54971 17.5034 3.54971C11.4999 3.54971 6.61073 8.45029 6.61073 14.4678V16.2047H3.06348V14.4678C3.06348 6.49123 9.53956 0 17.5034 0C25.4614 0 31.9375 6.49123 31.9375 14.4678V16.2047Z" fill="#242A5C"/>
</g>
<defs>
<clipPath id="clip0_2765_7894">
<rect width="35" height="46" fill="white"/>
</clipPath>
</defs>
</svg>
