<svg width="20" height="20" viewBox="0 0 20 20" fill="none" xmlns="http://www.w3.org/2000/svg">
<g opacity="0.5">
<path d="M9.99998 14.1666C9.55795 14.1666 9.13403 13.991 8.82147 13.6784C8.50891 13.3659 8.33331 12.9419 8.33331 12.4999C8.33331 11.5749 9.07498 10.8333 9.99998 10.8333C10.442 10.8333 10.8659 11.0088 11.1785 11.3214C11.4911 11.634 11.6666 12.0579 11.6666 12.4999C11.6666 12.9419 11.4911 13.3659 11.1785 13.6784C10.8659 13.991 10.442 14.1666 9.99998 14.1666ZM15 16.6666V8.33325H4.99998V16.6666H15ZM15 6.66658C15.442 6.66658 15.8659 6.84218 16.1785 7.15474C16.491 7.4673 16.6666 7.89122 16.6666 8.33325V16.6666C16.6666 17.1086 16.491 17.5325 16.1785 17.8451C15.8659 18.1577 15.442 18.3333 15 18.3333H4.99998C4.55795 18.3333 4.13403 18.1577 3.82147 17.8451C3.50891 17.5325 3.33331 17.1086 3.33331 16.6666V8.33325C3.33331 7.40825 4.07498 6.66658 4.99998 6.66658H5.83331V4.99992C5.83331 3.89485 6.2723 2.83504 7.0537 2.05364C7.8351 1.27224 8.89491 0.833252 9.99998 0.833252C10.5472 0.833252 11.089 0.941026 11.5945 1.15042C12.1 1.35982 12.5593 1.66673 12.9463 2.05364C13.3332 2.44055 13.6401 2.89988 13.8495 3.4054C14.0589 3.91093 14.1666 4.45274 14.1666 4.99992V6.66658H15ZM9.99998 2.49992C9.33694 2.49992 8.70105 2.76331 8.23221 3.23215C7.76337 3.70099 7.49998 4.33688 7.49998 4.99992V6.66658H12.5V4.99992C12.5 4.33688 12.2366 3.70099 11.7677 3.23215C11.2989 2.76331 10.663 2.49992 9.99998 2.49992Z" fill="#242A5C"/>
</g>
</svg>
