<svg width="51" height="60" viewBox="0 0 51 60" fill="none" xmlns="http://www.w3.org/2000/svg">
<g clip-path="url(#clip0_2765_7907)">
<path d="M25.608 0C19.0824 4.98772 10.041 8.90943 0.0980871 11.0458L-0.000618333 29.3262C-0.0444874 37.6896 3.94102 45.2557 11.8528 51.8164C17.0491 56.126 22.5152 58.7996 25.2877 60.0022C25.4062 59.9523 25.5378 59.8938 25.6672 59.8397V0.0433338C25.6452 0.028167 25.6255 0.0151668 25.608 0Z" fill="#296ACC"/>
<path d="M25.665 0.0432129V59.8374C28.5472 58.5872 33.7896 56.0045 38.8082 51.916C46.788 45.4159 50.8569 37.8801 50.9007 29.5167L50.9994 11.2385C41.107 9.03065 32.1335 5.0591 25.665 0.0432129Z" fill="#2E77E6"/>
<path d="M13.9482 27.0879V43.8754C13.9482 45.7453 37.0541 45.7453 37.0541 43.8754V27.0879H13.9482ZM26.6681 36.0017V40.7597C26.6681 41.3945 26.146 41.9189 25.5056 41.9189C24.8541 41.9189 24.3321 41.3924 24.3321 40.7597V35.9908C23.3428 35.551 22.6475 34.563 22.6475 33.4233C22.6475 31.8654 23.9307 30.6088 25.5077 30.6088C27.0848 30.6088 28.357 31.8654 28.357 33.4233C28.3548 34.5738 27.6683 35.5618 26.6681 36.0017Z" fill="white"/>
<path d="M35.0296 25.892H32.6914V24.761C32.6914 20.8436 29.4648 17.6585 25.5013 17.6585C21.5355 17.6585 18.3111 20.8457 18.3111 24.761V25.892H15.9707V24.761C15.9707 19.5696 20.2457 15.3467 25.5013 15.3467C30.7546 15.3467 35.0296 19.5696 35.0296 24.761V25.892Z" fill="white"/>
</g>
<defs>
<clipPath id="clip0_2765_7907">
<rect width="51" height="60" fill="white"/>
</clipPath>
</defs>
</svg>
