<svg width="19" height="22" viewBox="0 0 19 22" fill="none" xmlns="http://www.w3.org/2000/svg">
<path d="M15.8306 21.1173C14.603 22.2783 13.2626 22.095 11.9723 21.5451C10.6068 20.9829 9.35411 20.9585 7.91349 21.5451C6.10958 22.3027 5.15752 22.0828 4.08019 21.1173C-2.03306 14.9703 -1.1311 5.60929 5.80893 5.26711C7.50009 5.35266 8.67764 6.17144 9.66729 6.24477C11.1455 5.95147 12.5611 5.10824 14.1395 5.21823C16.0311 5.36488 17.4592 6.09812 18.3987 7.41795C14.4902 9.70322 15.4172 14.7259 19 16.1313C18.286 17.9644 17.3589 19.7853 15.8181 21.1296L15.8306 21.1173ZM9.54202 5.19379C9.35411 2.46858 11.6215 0.219972 14.2272 0C14.5905 3.15294 11.2958 5.49931 9.54202 5.19379Z" fill="#AAAAAA"/>
</svg>
