<svg width="252" height="32" viewBox="0 0 252 32" fill="none" xmlns="http://www.w3.org/2000/svg">
<g clip-path="url(#clip0_4499_17335)">
<path d="M87.319 6.18267H101.607V32H109.713V6.18267H124.149V0H87.319V6.18267Z" fill="#242A5C"/>
<path d="M129.331 32H162.608V25.8173H137.438V19.0726H157.685V12.8899H137.438V6.18267H162.608V0H129.331V32Z" fill="#242A5C"/>
<path d="M17.4712 0L0 32H8.88367L12.6962 24.6557H31.6481L35.4606 32H44.3443L26.9101 0H17.4712ZM15.9166 18.4731L22.1721 6.44497L28.4277 18.4731H15.9166Z" fill="#242A5C"/>
<path d="M234.566 0H225.127L207.656 32H216.539L220.352 24.6557H239.304L243.116 32H252L234.566 0ZM223.572 18.4731L229.828 6.44497L236.083 18.4731H223.572Z" fill="#242A5C"/>
<path d="M83.6175 10.829C83.6175 4.83372 78.8425 0 72.9201 0H47.6386V32H55.745V6.18267H70.9953C73.5493 6.18267 75.5852 8.28103 75.5852 10.829C75.5852 13.4145 73.5123 15.4754 70.9953 15.4754H59.7426L74.8079 31.9625H85.0241L74.9189 21.4333C79.8789 20.4965 83.6175 16.1124 83.6175 10.829Z" fill="#242A5C"/>
<path d="M204.732 10.829C204.732 4.87119 199.957 0 194.034 0H168.753V32H176.859V6.18267H192.109C194.663 6.18267 196.699 8.28103 196.699 10.829C196.699 13.4145 194.626 15.4754 192.109 15.4754H180.857L195.922 31.9625H206.138L196.033 21.4333C200.993 20.4965 204.732 16.1124 204.732 10.829Z" fill="#242A5C"/>
</g>
<defs>
<clipPath id="clip0_4499_17335">
<rect width="252" height="32" fill="white"/>
</clipPath>
</defs>
</svg>
