<svg width="309" height="137" viewBox="0 0 309 137" fill="none" xmlns="http://www.w3.org/2000/svg">
<g clip-path="url(#clip0_5_7763)">
<path d="M106.773 106.342H124.245V137H134.157V106.342H151.809V99H106.773V106.342Z" fill="white"/>
<path d="M158.145 137H198.835V129.658H168.057V121.649H192.815V114.307H168.057V106.342H198.835V99H158.145V137Z" fill="white"/>
<path d="M21.3637 99L0 137H10.8629L15.5249 128.279H38.6991L43.3611 137H54.224L32.9055 99H21.3637ZM19.4627 120.937L27.112 106.653L34.7613 120.937H19.4627Z" fill="white"/>
<path d="M286.827 99H275.286L253.922 137H264.785L269.447 128.279H292.621L297.283 137H308.146L286.827 99ZM273.385 120.937L281.034 106.653L288.683 120.937H273.385Z" fill="white"/>
<path d="M102.249 111.859C102.249 104.74 96.4099 99 89.1679 99H58.2539V137H68.1663V106.342H86.8143C89.9374 106.342 92.4268 108.834 92.4268 111.859C92.4268 114.93 89.8921 117.377 86.8143 117.377H73.0546L91.4763 136.956H103.969L91.6121 124.452C97.6772 123.34 102.249 118.133 102.249 111.859Z" fill="white"/>
<path d="M250.346 111.859C250.346 104.785 244.507 99 237.266 99H206.352V137H216.264V106.342H234.912C238.035 106.342 240.524 108.834 240.524 111.859C240.524 114.93 237.99 117.377 234.912 117.377H221.152L239.574 136.956H252.066L239.71 124.452C245.775 123.34 250.346 118.133 250.346 111.859Z" fill="white"/>
</g>
<path d="M162.893 0H145.1L108 39.3886V69H135.94L154 47.889L172.06 69H200V39.3886L162.893 0Z" fill="white"/>
<defs>
<clipPath id="clip0_5_7763">
<rect width="308.144" height="38" fill="white" transform="translate(0 99)"/>
</clipPath>
</defs>
</svg>
